<?xml version="1.0" encoding="UTF-8" standalone="no"?>
<svg
   xmlns="http://www.w3.org/2000/svg"
   id="svg2023"
   width="110.90026"
   height="210.03679"
   viewBox="0 0 110.90026 210.03679">
  <g
     id="digit"
     transform="translate(88.254049,547.3016)">

    <path
       style="fill:#231f20;fill-opacity:1;stroke:none"
       d="m -63.297842,-368.01864 -24.935642,6.20054 c -0.511363,15.47166 8.526452,23.46062 25.711629,24.19794 l 36.338874,0.35535 c 3.551124,-0.0878 6.828241,-0.77697 9.755057,-2.00353 l -15.205127,-25.63997 c -0.878067,0.4433 -1.952908,0.56599 -3.257085,0.54481 l -21.146018,0.26652 c -3.505643,-0.0622 -6.341611,-0.77766 -7.261688,-3.92166 z"
       id="segmentD" />
    <path
       style="fill:#231f20;fill-opacity:1;stroke:none"
       d="m -5.0384367,-443.65063 -18.5971853,11.64128 -4.857651,59.02754 c -0.183225,2.24756 -0.481081,3.92562 -0.913908,5.17619 l 16.011054,26.99905 c 6.7032085,-4.04767 11.0020079,-11.36675 11.646188,-20.98012 l 5.7612501,-73.75166 z"
       id="segmentC" />
    <path
       style="fill:#231f20;fill-opacity:1;stroke:none"
       d="m -73.641883,-445.44998 -8.776361,5.49375 -5.583573,74.58459 24.420771,-6.07243 c 0.01925,-0.29493 0.04456,-0.59744 0.08197,-0.91587 l 5.65327,-58.93085 z"
       id="segmentE" />
    <path
       style="fill:#231f20;fill-opacity:1;stroke:none"
       d="m -51.407226,-459.36818 -19.241634,12.04474 16.404692,14.70498 h 25.187923 l 21.3884833,-13.3886 -14.9057253,-13.36112 z"
       id="segmentG" />
    <path
       style="fill:#231f20;fill-opacity:1;stroke:none"
       d="m -73.617342,-533.62588 c -1.490112,3.18086 -2.363067,6.78498 -2.587115,10.66848 l -4.956796,66.21119 7.883067,7.06634 18.294842,-11.45182 5.078029,-52.94088 c 0.217616,-2.08523 0.472204,-3.57097 0.980659,-4.6196 z"
       id="segmentF" />
    <path
       style="fill:#231f20;fill-opacity:1;stroke:none"
       d="m 4.3661744,-539.81316 -21.3894634,21.59856 c 0.301879,0.74509 0.392795,1.64797 0.258171,2.72062 l -4.351615,52.8751 16.4419954,14.73836 10.1467304,-6.35171 5.3057692,-67.92513 c 0.252086,-6.19186 -2.0857333,-12.78615 -6.4115876,-17.6558 z"
       id="segmentB" />
    <path
       style="fill:#231f20;fill-opacity:1;stroke:none"
       d="m -50.438837,-547.3016 c -9.997133,0.11169 -17.289956,4.22615 -21.527385,10.70921 l 26.111648,15.79214 c 0.862642,-0.15598 1.921502,-0.21147 3.234506,-0.20221 h 19.457596 c 1.42173,0.0143 2.626028,0.18756 3.59526,0.53499 l 21.5038249,-21.7139 c -3.5293009,-2.97073 -7.9974715,-4.89789 -13.1932539,-5.0314 z"
       id="segmentA" />
    <path
       style="fill:#231f20;stroke:none"
       d="m 2.396209,-364.0265 20.25,0.125 -2.75,25.75 -20.25,-0.375 z"
       id="segmentDP" />
  </g>
</svg>
